#!OML:ASF F:\VICON\USERDATA\INSTALL\rory3\rory3.ASF
:FULLY-SPECIFIED
:DEGREES
1027
root -6.28127 17.6678 6.79661 175.983 71.0669 -551.942
lowerback 2.39204 3.002 -4.20909
upperback 1.28102 3.93123 -0.425152
thorax -0.274503 1.9594 1.80553
lowerneck -17.9449 2.48089 -6.68173
upperneck 37.7956 10.3643 -3.70063
head 16.6911 3.4939 1.72332
rclavicle 6.57977e-014 -1.11319e-014
rhumerus -35.2344 -6.06514 -81.01
rradius 40.444
rwrist 20.5052
rhand -23.9508 5.52664
rfingers 7.12502
rthumb 2.52486 -24.4382
lclavicle 6.57977e-014 -1.11319e-014
lhumerus -33.6502 7.99667 82.6609
lradius 31.9617
lwrist -6.58942
lhand -15.1207 24.6321
lfingers 7.12502
lthumb 11.0484 54.3213
rfemur -21.8734 -8.93447 14.587
rtibia 61.7891
rfoot -16.9367 -18.1242
rtoes 15.576
lfemur -17.5985 2.19587 -27.0804
ltibia 26.0411
lfoot -12.566 0.324492
ltoes -12.3508
1028
root -6.23812 17.6566 6.75905 175.876 70.7492 -551.967
lowerback 2.57594 3.02004 -4.22775
upperback 1.17588 3.94273 -0.602787
thorax -0.474789 1.97102 1.61958
lowerneck -17.4644 2.35294 -6.26138
upperneck 37.7931 10.01 -3.76625
head 16.5994 3.42333 1.54294
rclavicle -1.10624e-013 1.23246e-014
rhumerus -35.2823 -6.59297 -81.1503
rradius 40.3112
rwrist 20.4902
rhand -23.9201 5.56141
rfingers 7.12502
rthumb 2.55448 -24.403
lclavicle -1.10624e-013 1.23246e-014
lhumerus -33.4953 6.55997 82.9107
lradius 32.4834
lwrist -6.66683
lhand -15.2081 24.536
lfingers 7.12502
lthumb 10.964 54.2297
rfemur -22.7404 -8.90778 14.5468
rtibia 62.7038
rfoot -15.9397 -15.864
rtoes 12.62
lfemur -17.3672 2.30156 -27.2275
ltibia 26.1442
lfoot -12.8666 -0.0470307
ltoes -12.1303
1029
root -6.19475 17.6469 6.72143 176.021 70.4817 -551.711
lowerback 2.72987 2.98268 -4.19382
upperback 1.16979 3.88619 -0.642683
thorax -0.55873 1.94488 1.55326
lowerneck -17.192 2.28112 -6.06536
upperneck 37.753 9.84745 -3.8667
head 16.5308 3.38532 1.42703
rclavicle 1.03368e-014 2.34566e-014
rhumerus -35.2467 -6.90293 -81.2065
rradius 40.2999
rwrist 20.5551
rhand -23.9236 5.60067
rfingers 7.12502
rthumb 2.55114 -24.3638
lclavicle 1.03368e-014 2.34566e-014
lhumerus -33.1847 5.49174 83.2017
lradius 32.9747
lwrist -6.90268
lhand -15.0761 24.3209
lfingers 7.12502
lthumb 11.0913 54.0079
rfemur -23.6102 -8.83835 14.6682
rtibia 63.4772
rfoot -14.7189 -13.5244
rtoes 10.4731
lfemur -17.1585 2.1791 -27.2361
ltibia 26.3448
lfoot -13.2016 -0.103778
ltoes -11.5061
1030
root -6.14945 17.6378 6.68175 176.171 70.2979 -551.512
lowerback 2.76725 2.82206 -4.19407
upperback 1.2934 3.67557 -0.567059
thorax -0.445198 1.83639 1.64143
lowerneck -17.4106 2.31347 -6.30522
upperneck 37.8079 9.99269 -3.82282
head 16.5989 3.40336 1.52126
rclavicle 6.89286e-014 -2.42517e-014
rhumerus -35.021 -6.79025 -81.2418
rradius 40.4121
rwrist 20.6107
rhand -23.7274 5.85046
rfingers 7.12502
rthumb 2.74058 -24.1117
lclavicle 6.89286e-014 -2.42517e-014
lhumerus -32.6263 5.0264 83.5253
lradius 33.3384
lwrist -7.16352
lhand -15.5788 24.3177
lfingers 7.12502
lthumb 10.6064 54.03
rfemur -24.5534 -8.80606 14.8069
rtibia 64.1323
rfoot -13.7049 -11.2931
rtoes 8.09517
lfemur -17.0233 1.96633 -27.2623
ltibia 26.6019
lfoot -13.4797 -0.00767498
ltoes -11.056
1031
root -6.10448 17.6281 6.64317 176.069 70.1573 -551.584
lowerback 2.82653 2.56033 -4.39787
upperback 1.48913 3.32751 -0.411006
thorax -0.276603 1.65651 1.93117
lowerneck -17.9315 2.4428 -6.67054
upperneck 37.8756 10.3934 -3.8583
head 16.7493 3.48003 1.6603
rclavicle -5.93372e-014 1.82882e-014
rhumerus -34.5733 -6.13107 -81.3289
rradius 40.5037
rwrist 20.4779
rhand -23.5299 6.16294
rfingers 7.12502
rthumb 2.93141 -23.7967
lclavicle -5.93372e-014 1.82882e-014
lhumerus -31.9844 5.23358 83.7531
lradius 33.7171
lwrist -7.58266
lhand -16.1822 24.217
lfingers 7.12502
lthumb 10.0244 53.9583
rfemur -25.5096 -8.72446 14.8897
rtibia 64.6917
rfoot -13.0515 -9.45377
rtoes 6.32035
lfemur -16.8937 1.84821 -27.3842
ltibia 26.8766
lfoot -13.7571 0.054077
ltoes -10.4335
1032
root -6.06014 17.62 6.60487 176.163 70.0328 -551.431
lowerback 2.95423 2.43748 -4.43078
upperback 1.60661 3.16211 -0.362458
thorax -0.220543 1.57173 2.00309
lowerneck -18.2278 2.45787 -6.79236
upperneck 37.9682 10.4887 -3.82395
head 16.8629 3.48558 1.72572
rclavicle -1.63003e-014 1.66979e-014
rhumerus -34.4958 -5.89194 -81.416
rradius 40.8028
rwrist 20.2862
rhand -23.5059 6.22287
rfingers 7.12502
rthumb 2.95458 -23.7364
lclavicle -1.63003e-014 1.66979e-014
lhumerus -31.4039 4.86419 83.9429
lradius 34.1199
lwrist -7.98916
lhand -16.4925 23.9882
lfingers 7.12502
lthumb 9.72504 53.7437
rfemur -26.4338 -8.56702 15.0818
rtibia 65.129
rfoot -12.4473 -7.80962
rtoes 6.67913
lfemur -16.7668 1.76328 -27.4277
ltibia 27.1703
lfoot -14.0682 0.112685
ltoes -10.3353
1033
root -6.01301 17.6116 6.56477 176.437 69.9618 -551.134
lowerback 3.02064 2.46099 -4.31173
upperback 1.51555 3.18913 -0.429824
thorax -0.343156 1.58929 1.86112
lowerneck -17.7925 2.36593 -6.66112
upperneck 38.0072 10.239 -3.73297
head 16.774 3.43642 1.68275
rclavicle 3.53837e-014 4.37326e-015
rhumerus -34.9917 -6.02695 -81.4629
rradius 41.2381
rwrist 20.062
rhand -23.602 6.29132
rfingers 7.12502
rthumb 2.86177 -23.6692
lclavicle 3.53837e-014 4.37326e-015
lhumerus -31.1708 3.87714 84.0965
lradius 34.5184
lwrist -8.38044
lhand -16.6548 23.7215
lfingers 7.12502
lthumb 9.56843 53.4842
rfemur -27.3884 -8.45737 15.3411
rtibia 65.4273
rfoot -11.8124 -6.00212
rtoes 7.72176
lfemur -16.6957 1.62476 -27.4073
ltibia 27.5007
lfoot -14.4463 0.273605
ltoes -10.3066
1034
root -5.96507 17.5978 6.52558 176.461 69.9176 -551.112
lowerback 3.04723 2.47848 -4.27144
upperback 1.44131 3.20934 -0.530285
thorax -0.427827 1.60236 1.73162
lowerneck -17.397 2.29578 -6.50299
upperneck 38.0672 10.0394 -3.67391
head 16.7105 3.4042 1.63336
rclavicle 8.79622e-014 1.98785e-015
rhumerus -35.1487 -6.05982 -81.6033
rradius 41.3569
rwrist 19.8536
rhand -23.7061 6.30571
rfingers 7.12502
rthumb 2.76123 -23.6562
lclavicle 8.79622e-014 1.98785e-015
lhumerus -30.9116 2.97387 84.2345
lradius 34.844
lwrist -8.72205
lhand -17.04 23.539
lfingers 7.12502
lthumb 9.19675 53.3184
rfemur -28.3456 -8.48628 15.5803
rtibia 65.5853
rfoot -11.2676 -4.46841
rtoes 6.25554
lfemur -16.6234 1.53527 -27.4935
ltibia 27.8265
lfoot -14.7916 0.40706
ltoes -10.3583
1035
root -5.91887 17.58 6.48984 176.432 69.9126 -551.186
lowerback 3.03763 2.43739 -4.35014
upperback 1.4717 3.155 -0.574262
thorax -0.389409 1.57442 1.7339
lowerneck -17.353 2.27723 -6.42865
upperneck 38.1189 9.98492 -3.66033
head 16.7294 3.39295 1.61618
rclavicle 1.47598e-014 -3.57812e-015
rhumerus -34.9837 -5.92874 -81.778
rradius 41.4012
rwrist 19.7958
rhand -23.737 6.10299
rfingers 7.12502
rthumb 2.73134 -23.8593
lclavicle 1.47598e-014 -3.57812e-015
lhumerus -30.4071 2.23866 84.3908
lradius 35.1582
lwrist -8.77491
lhand -17.6271 23.4552
lfingers 7.12502
lthumb 8.63017 53.2588
rfemur -29.3609 -8.5046 15.8941
rtibia 65.6121
rfoot -10.8288 -3.41038
rtoes 3.61114
lfemur -16.5937 1.45405 -27.6074
ltibia 28.1322
lfoot -15.1933 0.54256
ltoes -9.70392
1036
root -5.87252 17.569 6.45473 176.312 69.9454 -551.367
lowerback 3.00253 2.3201 -4.54749
upperback 1.54536 2.99895 -0.507988
thorax -0.297436 1.49303 1.92152
lowerneck -17.3951 2.31308 -6.60817
upperneck 38.1426 10.0988 -3.62986
head 16.7409 3.41358 1.68203
rclavicle 9.88954e-015 -1.19271e-015
rhumerus -34.8701 -5.48459 -81.8232
rradius 41.6303
rwrist 19.7846
rhand -23.5329 6.08448
rfingers 7.12502
rthumb 2.92845 -23.8752
lclavicle 9.88954e-015 -1.19271e-015
lhumerus -29.9044 1.98638 84.5506
lradius 35.5581
lwrist -8.8225
lhand -18.0492 23.3969
lfingers 7.12502
lthumb 8.22282 53.2169
rfemur -30.3627 -8.42375 16.1547
rtibia 65.5295
rfoot -10.7721 -2.59611
rtoes 1.57535
lfemur -16.5426 1.34281 -27.7333
ltibia 28.4136
lfoot -15.6852 0.673261
ltoes -8.26067
1037
root -5.82574 17.5575 6.41756 176.184 69.9958 -551.539
lowerback 3.00339 2.17758 -4.70317
upperback 1.69304 2.81224 -0.42056
thorax -0.144778 1.3942 2.10903
lowerneck -17.7818 2.35565 -6.96544
upperneck 38.2359 10.2775 -3.48893
head 16.8548 3.42906 1.85106
rclavicle 3.32964e-014 -3.97569e-016
rhumerus -34.5679 -4.84281 -81.8832
rradius 41.8037
rwrist 19.6572
rhand -23.3831 6.31827
rfingers 7.12502
rthumb 3.07313 -23.6393
lclavicle 3.32964e-014 -3.97569e-016
lhumerus -29.2338 2.03555 84.7054
lradius 35.8935
lwrist -8.95496
lhand -18.4144 23.3245
lfingers 7.12502
lthumb 7.87042 53.158
rfemur -31.3207 -8.37088 16.4538
rtibia 65.329
rfoot -11.0089 -2.12627
rtoes -1.14691
lfemur -16.4567 1.43061 -27.8678
ltibia 28.6328
lfoot -16.0423 0.696864
ltoes -7.82083
